<svg width="32" height="32" viewBox="0 0 32 32" fill="none" xmlns="http://www.w3.org/2000/svg">
<mask id="mask0_580_380" style="mask-type:alpha" maskUnits="userSpaceOnUse" x="0" y="0" width="32" height="32">
<rect width="32" height="32" fill="#D9D9D9"/>
</mask>
<g mask="url(#mask0_580_380)">
<path d="M7.79984 22.7998C8.93317 21.9332 10.1998 21.2498 11.5998 20.7498C12.9998 20.2498 14.4665 19.9998 15.9998 19.9998C17.5332 19.9998 18.9998 20.2498 20.3998 20.7498C21.7998 21.2498 23.0665 21.9332 24.1998 22.7998C24.9776 21.8887 25.5832 20.8554 26.0165 19.6998C26.4498 18.5443 26.6665 17.3109 26.6665 15.9998C26.6665 13.0443 25.6276 10.5276 23.5498 8.44984C21.4721 6.37206 18.9554 5.33317 15.9998 5.33317C13.0443 5.33317 10.5276 6.37206 8.44984 8.44984C6.37206 10.5276 5.33317 13.0443 5.33317 15.9998C5.33317 17.3109 5.54984 18.5443 5.98317 19.6998C6.4165 20.8554 7.02206 21.8887 7.79984 22.7998ZM15.9998 17.3332C14.6887 17.3332 13.5832 16.8832 12.6832 15.9832C11.7832 15.0832 11.3332 13.9776 11.3332 12.6665C11.3332 11.3554 11.7832 10.2498 12.6832 9.34984C13.5832 8.44984 14.6887 7.99984 15.9998 7.99984C17.3109 7.99984 18.4165 8.44984 19.3165 9.34984C20.2165 10.2498 20.6665 11.3554 20.6665 12.6665C20.6665 13.9776 20.2165 15.0832 19.3165 15.9832C18.4165 16.8832 17.3109 17.3332 15.9998 17.3332ZM15.9998 29.3332C14.1554 29.3332 12.4221 28.9832 10.7998 28.2832C9.17762 27.5832 7.7665 26.6332 6.5665 25.4332C5.3665 24.2332 4.4165 22.8221 3.7165 21.1998C3.0165 19.5776 2.6665 17.8443 2.6665 15.9998C2.6665 14.1554 3.0165 12.4221 3.7165 10.7998C4.4165 9.17762 5.3665 7.7665 6.5665 6.5665C7.7665 5.3665 9.17762 4.4165 10.7998 3.7165C12.4221 3.0165 14.1554 2.6665 15.9998 2.6665C17.8443 2.6665 19.5776 3.0165 21.1998 3.7165C22.8221 4.4165 24.2332 5.3665 25.4332 6.5665C26.6332 7.7665 27.5832 9.17762 28.2832 10.7998C28.9832 12.4221 29.3332 14.1554 29.3332 15.9998C29.3332 17.8443 28.9832 19.5776 28.2832 21.1998C27.5832 22.8221 26.6332 24.2332 25.4332 25.4332C24.2332 26.6332 22.8221 27.5832 21.1998 28.2832C19.5776 28.9832 17.8443 29.3332 15.9998 29.3332ZM15.9998 26.6665C17.1776 26.6665 18.2887 26.4943 19.3332 26.1498C20.3776 25.8054 21.3332 25.3109 22.1998 24.6665C21.3332 24.0221 20.3776 23.5276 19.3332 23.1832C18.2887 22.8387 17.1776 22.6665 15.9998 22.6665C14.8221 22.6665 13.7109 22.8387 12.6665 23.1832C11.6221 23.5276 10.6665 24.0221 9.79984 24.6665C10.6665 25.3109 11.6221 25.8054 12.6665 26.1498C13.7109 26.4943 14.8221 26.6665 15.9998 26.6665ZM15.9998 14.6665C16.5776 14.6665 17.0554 14.4776 17.4332 14.0998C17.8109 13.7221 17.9998 13.2443 17.9998 12.6665C17.9998 12.0887 17.8109 11.6109 17.4332 11.2332C17.0554 10.8554 16.5776 10.6665 15.9998 10.6665C15.4221 10.6665 14.9443 10.8554 14.5665 11.2332C14.1887 11.6109 13.9998 12.0887 13.9998 12.6665C13.9998 13.2443 14.1887 13.7221 14.5665 14.0998C14.9443 14.4776 15.4221 14.6665 15.9998 14.6665Z" fill="#959595"/>
</g>
</svg>
