<svg width="26" height="24" viewBox="0 0 26 24" fill="none" xmlns="http://www.w3.org/2000/svg">
<path d="M2.66667 24C1.93333 24 1.30556 23.7389 0.783333 23.2167C0.261111 22.6944 0 22.0667 0 21.3333V2.66667C0 1.93333 0.261111 1.30556 0.783333 0.783333C1.30556 0.261111 1.93333 0 2.66667 0H21.3333C22.0667 0 22.6944 0.261111 23.2167 0.783333C23.7389 1.30556 24 1.93333 24 2.66667V6H21.3333V2.66667H2.66667V21.3333H21.3333V18H24V21.3333C24 22.0667 23.7389 22.6944 23.2167 23.2167C22.6944 23.7389 22.0667 24 21.3333 24H2.66667ZM13.3333 18.6667C12.6 18.6667 11.9722 18.4056 11.45 17.8833C10.9278 17.3611 10.6667 16.7333 10.6667 16V8C10.6667 7.26667 10.9278 6.63889 11.45 6.11667C11.9722 5.59444 12.6 5.33333 13.3333 5.33333H22.6667C23.4 5.33333 24.0278 5.59444 24.55 6.11667C25.0722 6.63889 25.3333 7.26667 25.3333 8V16C25.3333 16.7333 25.0722 17.3611 24.55 17.8833C24.0278 18.4056 23.4 18.6667 22.6667 18.6667H13.3333ZM22.6667 16V8H13.3333V16H22.6667ZM17.3333 14C17.8889 14 18.3611 13.8056 18.75 13.4167C19.1389 13.0278 19.3333 12.5556 19.3333 12C19.3333 11.4444 19.1389 10.9722 18.75 10.5833C18.3611 10.1944 17.8889 10 17.3333 10C16.7778 10 16.3056 10.1944 15.9167 10.5833C15.5278 10.9722 15.3333 11.4444 15.3333 12C15.3333 12.5556 15.5278 13.0278 15.9167 13.4167C16.3056 13.8056 16.7778 14 17.3333 14Z" fill="#959595"/>
</svg>
