<svg width="28" height="24" viewBox="0 0 28 24" fill="none" xmlns="http://www.w3.org/2000/svg">
<path d="M22.8667 13.3333H6.66667V10.6667H22.8667L20.8 8.6L22.6667 6.66667L28 12L22.6667 17.3333L20.8 15.4L22.8667 13.3333ZM16 8V2.66667H2.66667V21.3333H16V16H18.6667V21.3333C18.6667 22.0667 18.4056 22.6944 17.8833 23.2167C17.3611 23.7389 16.7333 24 16 24H2.66667C1.93333 24 1.30556 23.7389 0.783333 23.2167C0.261111 22.6944 0 22.0667 0 21.3333V2.66667C0 1.93333 0.261111 1.30556 0.783333 0.783333C1.30556 0.261111 1.93333 0 2.66667 0H16C16.7333 0 17.3611 0.261111 17.8833 0.783333C18.4056 1.30556 18.6667 1.93333 18.6667 2.66667V8H16Z" fill="#959595"/>
</svg>
