<svg width="28" height="28" viewBox="0 0 28 28" fill="none" xmlns="http://www.w3.org/2000/svg">
<path d="M10.3334 27.3332L9.8001 23.0665C9.51121 22.9554 9.23899 22.8221 8.98343 22.6665C8.72787 22.5109 8.47787 22.3443 8.23343 22.1665L4.26676 23.8332L0.600098 17.4998L4.03343 14.8998C4.01121 14.7443 4.0001 14.5943 4.0001 14.4498V13.5498C4.0001 13.4054 4.01121 13.2554 4.03343 13.0998L0.600098 10.4998L4.26676 4.1665L8.23343 5.83317C8.47787 5.65539 8.73343 5.48873 9.0001 5.33317C9.26676 5.17762 9.53343 5.04428 9.8001 4.93317L10.3334 0.666504H17.6668L18.2001 4.93317C18.489 5.04428 18.7612 5.17762 19.0168 5.33317C19.2723 5.48873 19.5223 5.65539 19.7668 5.83317L23.7334 4.1665L27.4001 10.4998L23.9668 13.0998C23.989 13.2554 24.0001 13.4054 24.0001 13.5498V14.4498C24.0001 14.5943 23.9779 14.7443 23.9334 14.8998L27.3668 17.4998L23.7001 23.8332L19.7668 22.1665C19.5223 22.3443 19.2668 22.5109 19.0001 22.6665C18.7334 22.8221 18.4668 22.9554 18.2001 23.0665L17.6668 27.3332H10.3334ZM12.6668 24.6665H15.3001L15.7668 21.1332C16.4557 20.9554 17.0945 20.6943 17.6834 20.3498C18.2723 20.0054 18.8112 19.5887 19.3001 19.0998L22.6001 20.4665L23.9001 18.1998L21.0334 16.0332C21.1445 15.7221 21.2223 15.3943 21.2668 15.0498C21.3112 14.7054 21.3334 14.3554 21.3334 13.9998C21.3334 13.6443 21.3112 13.2943 21.2668 12.9498C21.2223 12.6054 21.1445 12.2776 21.0334 11.9665L23.9001 9.79984L22.6001 7.53317L19.3001 8.93317C18.8112 8.42206 18.2723 7.99428 17.6834 7.64984C17.0945 7.30539 16.4557 7.04428 15.7668 6.8665L15.3334 3.33317H12.7001L12.2334 6.8665C11.5445 7.04428 10.9057 7.30539 10.3168 7.64984C9.72787 7.99428 9.18899 8.41095 8.7001 8.89984L5.4001 7.53317L4.1001 9.79984L6.96676 11.9332C6.85565 12.2665 6.77787 12.5998 6.73343 12.9332C6.68899 13.2665 6.66676 13.6221 6.66676 13.9998C6.66676 14.3554 6.68899 14.6998 6.73343 15.0332C6.77787 15.3665 6.85565 15.6998 6.96676 16.0332L4.1001 18.1998L5.4001 20.4665L8.7001 19.0665C9.18899 19.5776 9.72787 20.0054 10.3168 20.3498C10.9057 20.6943 11.5445 20.9554 12.2334 21.1332L12.6668 24.6665ZM14.0668 18.6665C15.3557 18.6665 16.4557 18.2109 17.3668 17.2998C18.2779 16.3887 18.7334 15.2887 18.7334 13.9998C18.7334 12.7109 18.2779 11.6109 17.3668 10.6998C16.4557 9.78873 15.3557 9.33317 14.0668 9.33317C12.7557 9.33317 11.6501 9.78873 10.7501 10.6998C9.8501 11.6109 9.4001 12.7109 9.4001 13.9998C9.4001 15.2887 9.8501 16.3887 10.7501 17.2998C11.6501 18.2109 12.7557 18.6665 14.0668 18.6665Z" fill="#959595"/>
</svg>
