<svg width="224" height="55" viewBox="0 0 224 55" fill="none" xmlns="http://www.w3.org/2000/svg">
<g clip-path="url(#clip0_555_1132)">
<path d="M143.933 48.4952C140.132 51.9104 134.368 51.9104 130.567 48.4952L81.5315 4.43861C74.7111 -1.68936 79.0459 -13 88.2149 -13L186.285 -13C195.454 -13 199.789 -1.68937 192.968 4.43859L143.933 48.4952Z" fill="#E57B23"/>
<path d="M93.9334 48.9952C90.1322 52.4104 84.3678 52.4104 80.5666 48.9952L31.5315 4.93861C24.7111 -1.18936 29.0459 -12.5 38.2149 -12.5L136.285 -12.5C145.454 -12.5 149.789 -1.18937 142.968 4.93859L93.9334 48.9952Z" fill="#173B99"/>
</g>
<defs>
<clipPath id="clip0_555_1132">
<rect width="224" height="55" fill="white" transform="matrix(-1 0 0 -1 224 55)"/>
</clipPath>
</defs>
</svg>
