<svg width="45" height="45" viewBox="0 0 45 45" fill="none" xmlns="http://www.w3.org/2000/svg">
<g clip-path="url(#clip0_10_492)">
<path d="M6.25116 21.586L25.5039 11.1358C26.0571 10.8402 26.6781 10.6947 27.3051 10.7136C27.9321 10.7325 28.5432 10.9153 29.0776 11.2437C29.612 11.5722 30.0511 12.0348 30.3512 12.5856C30.6513 13.1364 30.802 13.7562 30.7882 14.3833L30.1618 36.2804C30.1485 36.8889 29.9735 37.4829 29.6548 38.0015C29.3361 38.5201 28.8852 38.9446 28.3483 39.2314C27.7966 39.5311 27.1751 39.6786 26.5476 39.6588C25.9201 39.639 25.3091 39.4527 24.7774 39.1188L6.15109 27.672C5.61365 27.3483 5.17194 26.8875 4.87122 26.3369C4.5705 25.7862 4.42159 25.1655 4.43973 24.5384C4.45267 23.9298 4.62725 23.3357 4.94557 22.8169C5.26389 22.298 5.7145 21.8732 6.25116 21.586ZM7.43876 24.6193C7.43672 24.7198 7.46185 24.8189 7.51148 24.9062C7.56112 24.9935 7.63343 25.0658 7.72077 25.1154L26.3481 36.5629C26.4319 36.6184 26.529 36.6503 26.6293 36.6551C26.7297 36.6599 26.8294 36.6376 26.9181 36.5904C26.9916 36.5532 27.0533 36.4964 27.0964 36.4263C27.1395 36.3562 27.1623 36.2755 27.1622 36.1932L27.7886 14.2961C27.7868 14.1965 27.7599 14.099 27.7105 14.0125C27.6611 13.926 27.5907 13.8534 27.5059 13.8012C27.421 13.7491 27.3244 13.7191 27.2249 13.7141C27.1255 13.7091 27.0263 13.7292 26.9367 13.7725L7.68395 24.2228C7.6104 24.2597 7.54855 24.3164 7.50526 24.3864C7.46198 24.4564 7.43896 24.537 7.43876 24.6193Z" fill="#E57B23"/>
</g>
<defs>
<clipPath id="clip0_10_492">
<rect width="32" height="32" fill="white" transform="matrix(-0.851975 -0.523582 -0.523582 0.851975 44.0176 17.4915)"/>
</clipPath>
</defs>
</svg>
