<svg width="32" height="32" viewBox="0 0 32 32" fill="none" xmlns="http://www.w3.org/2000/svg">
<mask id="mask0_24_425" style="mask-type:alpha" maskUnits="userSpaceOnUse" x="0" y="0" width="32" height="32">
<rect width="32" height="32" fill="#D9D9D9"/>
</mask>
<g mask="url(#mask0_24_425)">
<path d="M5.33301 25.3333V22.6667H7.99967V13.3333C7.99967 11.4889 8.55523 9.84999 9.66634 8.41666C10.7775 6.98332 12.2219 6.04443 13.9997 5.59999V4.66666C13.9997 4.1111 14.1941 3.63888 14.583 3.24999C14.9719 2.8611 15.4441 2.66666 15.9997 2.66666C16.5552 2.66666 17.0275 2.8611 17.4163 3.24999C17.8052 3.63888 17.9997 4.1111 17.9997 4.66666V5.59999C19.7775 6.04443 21.2219 6.98332 22.333 8.41666C23.4441 9.84999 23.9997 11.4889 23.9997 13.3333V22.6667H26.6663V25.3333H5.33301ZM15.9997 29.3333C15.2663 29.3333 14.6386 29.0722 14.1163 28.55C13.5941 28.0278 13.333 27.4 13.333 26.6667H18.6663C18.6663 27.4 18.4052 28.0278 17.883 28.55C17.3608 29.0722 16.733 29.3333 15.9997 29.3333ZM10.6663 22.6667H21.333V13.3333C21.333 11.8667 20.8108 10.6111 19.7663 9.56666C18.7219 8.52221 17.4663 7.99999 15.9997 7.99999C14.533 7.99999 13.2775 8.52221 12.233 9.56666C11.1886 10.6111 10.6663 11.8667 10.6663 13.3333V22.6667Z" fill="#959595"/>
</g>
</svg>
