<svg width="54" height="54" viewBox="0 0 54 54" fill="none" xmlns="http://www.w3.org/2000/svg">
<g clip-path="url(#clip0_82_805)">
<path d="M12.8692 42.1723L17.8294 13.8517C17.9768 13.0418 18.3338 12.2845 18.8647 11.6553C19.3956 11.0261 20.082 10.5469 20.8557 10.2653C21.6293 9.98372 22.4632 9.90961 23.2743 10.0503C24.0855 10.1911 24.8457 10.5417 25.4792 11.0674L47.4831 29.5739C48.0979 30.0841 48.5659 30.7486 48.8391 31.4993C49.1124 32.25 49.181 33.0599 49.038 33.8459C48.8961 34.6576 48.5408 35.417 48.0085 36.0461C47.4763 36.6752 46.7863 37.1513 46.0093 37.4257L19.0453 47.2398C18.274 47.5284 17.4399 47.6066 16.6284 47.4667C15.8169 47.3267 15.0572 46.9735 14.4272 46.4432C13.812 45.9335 13.3435 45.2693 13.0697 44.5188C12.796 43.7683 12.7267 42.9584 12.8692 42.1723ZM16.9569 43.4256C17.0585 43.5097 17.1809 43.5647 17.3112 43.5849C17.4414 43.6051 17.5747 43.5897 17.697 43.5404L44.6626 33.7257C44.7879 33.6849 44.9 33.611 44.9868 33.5118C45.0736 33.4126 45.132 33.2917 45.1558 33.1621C45.1775 33.0562 45.1695 32.9465 45.1325 32.8449C45.0955 32.7434 45.0312 32.6541 44.9465 32.587L22.9427 14.0805C22.8388 14.0012 22.7166 13.9493 22.5874 13.9296C22.4581 13.9098 22.326 13.9229 22.2032 13.9676C22.0804 14.0123 21.9707 14.0872 21.8844 14.1854C21.7981 14.2836 21.7379 14.4019 21.7093 14.5294L16.7491 42.85C16.7271 42.9558 16.7349 43.0656 16.7716 43.1672C16.8083 43.2688 16.8724 43.3583 16.9569 43.4256Z" fill="#173B99"/>
</g>
<defs>
<clipPath id="clip0_82_805">
<rect width="42" height="42" fill="white" transform="matrix(-0.939693 0.34202 0.34202 0.939693 39.4671 0)"/>
</clipPath>
</defs>
</svg>
